<?xml version="1.0" standalone="no"?>
<!DOCTYPE svg PUBLIC "-//W3C//DTD SVG 20010904//EN"
 "http://www.w3.org/TR/2001/REC-SVG-20010904/DTD/svg10.dtd">
<svg version="1.0" xmlns="http://www.w3.org/2000/svg"
 width="128.000000pt" height="128.000000pt" viewBox="0 0 128.000000 128.000000"
 preserveAspectRatio="xMidYMid meet">
<metadata>
Created by potrace 1.11, written by Peter Selinger 2001-2013
</metadata>
<g transform="translate(0.000000,128.000000) scale(0.100000,-0.100000)"
fill="#000000" stroke="none">
<path d="M20 1014 c0 -4 71 -342 85 -404 8 -36 17 -76 19 -90 2 -14 16 -78 30
-143 14 -65 26 -120 26 -121 0 -2 43 -3 95 -3 l95 1 10 35 c5 20 25 108 45
196 30 137 59 236 53 185 -1 -8 5 -42 12 -75 8 -33 14 -62 15 -65 1 -3 16 -66
34 -141 l32 -136 97 1 96 1 13 60 c6 33 14 74 17 90 3 17 12 59 20 95 8 36 18
81 21 100 3 19 10 51 15 70 5 19 11 46 14 60 2 14 16 81 30 149 14 68 24 127
21 131 -5 9 -175 9 -176 0 0 -3 -2 -12 -4 -20 -1 -8 -12 -69 -24 -135 -12 -66
-24 -131 -27 -145 -3 -14 -10 -53 -16 -88 -10 -57 -19 -71 -24 -39 -5 27 -14
70 -53 246 -23 101 -41 185 -41 186 0 1 -35 1 -79 1 l-79 0 -11 -50 c-6 -28
-14 -62 -16 -76 -10 -46 -25 -115 -28 -125 -2 -5 -12 -54 -22 -108 -10 -53
-22 -94 -26 -90 -4 5 -14 51 -23 103 -9 52 -21 115 -26 140 -9 43 -12 63 -26
158 -4 23 -9 43 -13 43 -10 3 -181 6 -181 3z"/>
<path d="M1050 1001 c-102 -54 -98 -206 7 -253 60 -27 113 -17 158 27 116 117
-21 304 -165 226z m110 -48 c26 -15 50 -50 50 -74 0 -6 -7 -26 -16 -45 -22
-46 -66 -60 -116 -37 -53 25 -67 97 -26 140 18 19 32 25 71 32 5 0 22 -6 37
-16z"/>
</g>
</svg>
